# xmcd
#
# Track frame offsets: 
#        150
#        23257
#        43582
#        63720
#        85857
#        114382
#        134595
#        161297
#        186585
#        210707
#
# Disc length: 3122 seconds
#
# Revision: 0
# Processed by: cddbd v1.5.2PL0 Copyright (c) Steve Scherf et al.
# Submitted via: ExactAudioCopy v0.99pb3
#
DISCID=850c300a
DTITLE=Archie Lee Hooker - New Church Of The Blues
DYEAR=2001
DGENRE=Blues
TTITLE0=New Church Of The Blues
TTITLE1=Sitting In The Dark
TTITLE2=River Blues
TTITLE3=New Crawlin' King Snake
TTITLE4=It Ain't Right (John Lee Hooker, Sr.)
TTITLE5=I Didn't Know
TTITLE6=Beale Street
TTITLE7=Angel In My Eye
TTITLE8=Zebede Blues
TTITLE9=Big Ass Fun
EXTD=
EXTT0=
EXTT1=
EXTT2=
EXTT3=
EXTT4=
EXTT5=
EXTT6=
EXTT7=
EXTT8=
EXTT9=
PLAYORDER=
